<mxfile host="app.diagrams.net" agent="Mozilla/5.0 (Windows NT 10.0; Win64; x64) AppleWebKit/537.36 (KHTML, like Gecko) Chrome/133.0.0.0 Safari/537.36" version="26.0.16">
  <diagram name="Page-1" id="qyv1hwr6gdbaZUMZZOlc">
    <mxGraphModel dx="1120" dy="434" grid="1" gridSize="10" guides="1" tooltips="1" connect="1" arrows="1" fold="1" page="1" pageScale="1" pageWidth="850" pageHeight="1100" math="0" shadow="0">
      <root>
        <mxCell id="0" />
        <mxCell id="1" parent="0" />
        <mxCell id="Hzu2MB58Lj-v0A_1_a-V-10" style="edgeStyle=orthogonalEdgeStyle;rounded=0;orthogonalLoop=1;jettySize=auto;html=1;" edge="1" parent="1" source="Hzu2MB58Lj-v0A_1_a-V-1" target="Hzu2MB58Lj-v0A_1_a-V-4">
          <mxGeometry relative="1" as="geometry" />
        </mxCell>
        <mxCell id="Hzu2MB58Lj-v0A_1_a-V-1" value="start" style="ellipse;whiteSpace=wrap;html=1;" vertex="1" parent="1">
          <mxGeometry x="260" y="10" width="80" height="50" as="geometry" />
        </mxCell>
        <mxCell id="Hzu2MB58Lj-v0A_1_a-V-6" style="edgeStyle=orthogonalEdgeStyle;rounded=0;orthogonalLoop=1;jettySize=auto;html=1;entryX=0.5;entryY=0;entryDx=0;entryDy=0;" edge="1" parent="1" source="Hzu2MB58Lj-v0A_1_a-V-3" target="Hzu2MB58Lj-v0A_1_a-V-5">
          <mxGeometry relative="1" as="geometry" />
        </mxCell>
        <mxCell id="Hzu2MB58Lj-v0A_1_a-V-7" value="yes" style="edgeLabel;html=1;align=center;verticalAlign=middle;resizable=0;points=[];" vertex="1" connectable="0" parent="Hzu2MB58Lj-v0A_1_a-V-6">
          <mxGeometry x="0.1" y="1" relative="1" as="geometry">
            <mxPoint as="offset" />
          </mxGeometry>
        </mxCell>
        <mxCell id="Hzu2MB58Lj-v0A_1_a-V-9" style="edgeStyle=orthogonalEdgeStyle;rounded=0;orthogonalLoop=1;jettySize=auto;html=1;entryX=0;entryY=0.5;entryDx=0;entryDy=0;" edge="1" parent="1" source="Hzu2MB58Lj-v0A_1_a-V-3" target="Hzu2MB58Lj-v0A_1_a-V-8">
          <mxGeometry relative="1" as="geometry" />
        </mxCell>
        <mxCell id="Hzu2MB58Lj-v0A_1_a-V-12" value="no" style="edgeLabel;html=1;align=center;verticalAlign=middle;resizable=0;points=[];" vertex="1" connectable="0" parent="Hzu2MB58Lj-v0A_1_a-V-9">
          <mxGeometry x="-0.1529" y="1" relative="1" as="geometry">
            <mxPoint as="offset" />
          </mxGeometry>
        </mxCell>
        <mxCell id="Hzu2MB58Lj-v0A_1_a-V-3" value="does number = 0" style="rhombus;whiteSpace=wrap;html=1;" vertex="1" parent="1">
          <mxGeometry x="250" y="190" width="100" height="90" as="geometry" />
        </mxCell>
        <mxCell id="Hzu2MB58Lj-v0A_1_a-V-11" style="edgeStyle=orthogonalEdgeStyle;rounded=0;orthogonalLoop=1;jettySize=auto;html=1;" edge="1" parent="1" source="Hzu2MB58Lj-v0A_1_a-V-4" target="Hzu2MB58Lj-v0A_1_a-V-3">
          <mxGeometry relative="1" as="geometry" />
        </mxCell>
        <mxCell id="Hzu2MB58Lj-v0A_1_a-V-4" value="imput number" style="shape=parallelogram;perimeter=parallelogramPerimeter;whiteSpace=wrap;html=1;fixedSize=1;" vertex="1" parent="1">
          <mxGeometry x="240" y="110" width="120" height="60" as="geometry" />
        </mxCell>
        <mxCell id="Hzu2MB58Lj-v0A_1_a-V-5" value="stop" style="ellipse;whiteSpace=wrap;html=1;" vertex="1" parent="1">
          <mxGeometry x="260" y="320" width="80" height="60" as="geometry" />
        </mxCell>
        <mxCell id="Hzu2MB58Lj-v0A_1_a-V-13" style="edgeStyle=orthogonalEdgeStyle;rounded=0;orthogonalLoop=1;jettySize=auto;html=1;" edge="1" parent="1" source="Hzu2MB58Lj-v0A_1_a-V-8">
          <mxGeometry relative="1" as="geometry">
            <mxPoint x="300" y="80" as="targetPoint" />
            <Array as="points">
              <mxPoint x="505" y="136" />
              <mxPoint x="506" y="136" />
            </Array>
          </mxGeometry>
        </mxCell>
        <mxCell id="Hzu2MB58Lj-v0A_1_a-V-8" value="print &quot;the number you pressed was &quot; + number" style="shape=parallelogram;perimeter=parallelogramPerimeter;whiteSpace=wrap;html=1;fixedSize=1;" vertex="1" parent="1">
          <mxGeometry x="425" y="202.5" width="160" height="65" as="geometry" />
        </mxCell>
      </root>
    </mxGraphModel>
  </diagram>
</mxfile>
